<svg xmlns="http://www.w3.org/2000/svg" width="769" height="433" viewBox="0 0 769 433" version="1.1">
	<path d="M 351.500 89.489 C 347.100 90.199, 341.475 91.269, 339 91.866 C 332.534 93.425, 328.388 93.246, 326.465 91.322 C 325.136 89.993, 324.446 89.887, 323.144 90.813 C 318.094 94.404, 310.764 97.331, 301.235 99.562 C 287.150 102.860, 282.907 104.532, 278.033 108.704 C 275.393 110.964, 271.270 113, 266.159 114.570 C 261.404 116.030, 256.989 118.153, 254.915 119.976 C 247.333 126.640, 234.431 136.467, 230.612 138.487 C 227.276 140.251, 225.423 142.574, 220.179 151.566 C 216.672 157.580, 212.276 164.525, 210.410 167 C 202.195 177.897, 199.897 181.871, 199.085 186.589 C 198.619 189.290, 196.862 196.712, 195.180 203.082 C 192.370 213.725, 192.168 215.555, 192.700 225.637 C 193.303 237.057, 192.300 241.713, 189.472 240.628 C 187.607 239.912, 183.487 243.360, 184.414 244.861 C 184.817 245.513, 188.081 247.525, 191.666 249.333 L 198.186 252.620 198.485 257.369 C 199.034 266.092, 220.077 304.830, 225.984 307.991 C 227.145 308.613, 228.504 310.195, 229.003 311.507 C 229.623 313.139, 231.268 314.294, 234.205 315.164 C 237.342 316.092, 240.472 318.425, 245.816 323.817 C 251.058 329.106, 253.662 331.060, 255.001 330.710 C 256.036 330.439, 257.102 330.824, 257.389 331.570 C 258.328 334.019, 266.003 338.825, 270.072 339.512 C 272.270 339.884, 276.641 341.750, 279.784 343.660 C 285.118 346.901, 285.901 347.093, 291.500 346.528 C 297.145 345.958, 298.207 346.228, 309.451 351.089 C 319.964 355.634, 321.770 356.132, 324.451 355.222 C 328.725 353.772, 352.350 355.273, 357.500 357.321 C 362.112 359.156, 368.127 359.473, 369.639 357.961 C 370.341 357.259, 372.595 357.231, 376.589 357.875 C 381.151 358.611, 382.983 358.520, 384.618 357.478 C 386.420 356.328, 387.062 356.355, 388.922 357.658 C 392.042 359.843, 412.829 360.230, 419 358.217 C 423.652 356.700, 429.461 356.869, 444.845 358.967 C 449.908 359.658, 452.800 359.642, 454.153 358.918 C 456.283 357.778, 461.034 358.480, 464.980 360.517 C 467.179 361.652, 467.697 361.540, 469.564 359.525 C 471.198 357.762, 473.603 356.979, 480.303 356.028 C 487.814 354.962, 490.113 355.030, 497.998 356.554 C 505.592 358.021, 507.921 358.112, 512.383 357.114 C 519.910 355.429, 522.359 352.899, 521.567 347.624 C 520.937 343.428, 520.904 342.206, 521.189 333.667 C 521.278 331.009, 520.876 328.534, 520.295 328.167 C 518.506 327.035, 517.796 315.982, 517.924 291.240 C 517.992 278.183, 517.999 266.150, 517.941 264.500 C 517.883 262.850, 517.984 253.175, 518.167 243 C 518.771 209.448, 518.672 206.743, 516.750 204.027 C 514.604 200.995, 514.484 196.673, 516.500 195 C 517.325 194.315, 517.996 192.573, 517.991 191.128 C 517.985 189.388, 519.046 187.625, 521.131 185.911 C 523.481 183.980, 524.054 182.920, 523.390 181.734 C 522.331 179.843, 514.464 174, 512.977 174 C 512.405 174, 509.139 174.949, 505.718 176.110 C 499.123 178.347, 500.474 178.350, 474.500 176.034 C 467.627 175.421, 463.198 175.490, 460.337 176.255 C 457.220 177.089, 455.178 177.070, 452.216 176.183 C 449.013 175.223, 447.478 175.273, 444.160 176.444 C 440.825 177.620, 438.922 177.678, 433.951 176.754 C 429.616 175.948, 427.348 175.926, 426.140 176.680 C 424.939 177.431, 422.914 177.431, 419.257 176.682 C 414.731 175.755, 413.824 175.849, 412.076 177.431 C 407.125 181.911, 407.304 187.578, 412.738 198.417 C 414.597 202.125, 415.156 204.707, 415.012 208.917 C 414.735 216.992, 414.735 217.028, 415.005 222.500 C 415.141 225.250, 414.495 230.064, 413.570 233.199 C 411.955 238.669, 411.968 239.157, 413.891 245.381 C 415.569 250.816, 415.919 254.991, 416.053 271.183 C 416.149 282.768, 415.791 291.572, 415.159 293.178 C 414.467 294.935, 414.364 300.271, 414.859 308.678 C 415.274 315.730, 415.332 322.625, 414.987 324 C 414.229 327.025, 410.728 328.965, 405.994 328.985 C 398.593 329.016, 376.845 325.945, 374.724 324.570 C 373.501 323.776, 369.418 322.357, 365.652 321.417 C 361.193 320.304, 357.713 318.711, 355.679 316.854 C 353.960 315.284, 351.968 314, 351.251 314 C 348.858 314, 341.337 305.428, 338.025 298.925 C 336.225 295.391, 333.263 290.357, 331.443 287.738 C 327.306 281.783, 323.809 272.609, 324.550 269.655 C 324.908 268.230, 324.015 265.330, 322.093 261.677 C 319.610 256.957, 319.249 255.474, 320.062 253.336 C 320.606 251.906, 320.712 249.783, 320.297 248.618 C 319.882 247.453, 319.493 242.450, 319.431 237.500 C 319.370 232.550, 318.959 223.673, 318.517 217.774 C 317.897 209.480, 318.011 206.692, 319.018 205.479 C 319.734 204.615, 320.923 204.140, 321.660 204.423 C 323.604 205.169, 323.303 203.200, 321.031 200.313 L 319.063 197.810 321.706 192.655 C 323.160 189.820, 325.294 184.125, 326.449 180 C 327.998 174.466, 329.117 172.248, 330.718 171.537 C 332.943 170.550, 334.363 167.873, 338.087 157.652 C 339.688 153.257, 341.037 151.321, 343.519 149.856 C 345.335 148.785, 347.081 147.231, 347.398 146.404 C 347.716 145.577, 350.485 143.752, 353.551 142.348 C 357.073 140.736, 359.456 138.931, 360.019 137.451 C 360.638 135.821, 362.010 134.901, 364.526 134.429 C 366.515 134.056, 369.416 132.680, 370.972 131.370 C 374.266 128.599, 385.011 126.934, 387.307 128.840 C 388.326 129.685, 389.617 129.469, 392.578 127.958 C 396.068 126.177, 397.915 126.008, 409.355 126.419 C 418.924 126.762, 422.638 127.267, 423.882 128.394 C 426.570 130.825, 436.010 134.723, 442.500 136.079 C 447.567 137.139, 449.122 138.017, 452.500 141.726 C 454.700 144.142, 457.625 146.664, 459 147.330 C 460.375 147.997, 462.625 150.747, 464 153.442 C 467.233 159.779, 470.676 162.279, 476.338 162.403 C 481.502 162.516, 484.355 160.483, 485.991 155.526 C 486.581 153.740, 488.151 151.797, 489.501 151.181 C 490.845 150.569, 492.231 148.928, 492.581 147.534 C 492.931 146.140, 493.618 145, 494.108 145 C 494.599 145, 495 143.875, 495 142.500 C 495 140.720, 495.541 140, 496.879 140 C 499.428 140, 501.309 135.166, 500.480 130.744 C 499.440 125.203, 496.316 120.963, 492.033 119.281 C 489.594 118.323, 488.343 117.269, 488.661 116.440 C 489.003 115.550, 487.922 114.900, 485.334 114.437 C 483.225 114.061, 480.479 112.822, 479.230 111.684 C 477.581 110.180, 475.531 109.590, 471.730 109.523 C 467.165 109.443, 465.541 108.782, 458.959 104.326 C 449.903 98.195, 443.353 95.760, 438.154 96.591 C 435.433 97.026, 434.052 96.768, 433.124 95.649 C 431.971 94.260, 431.520 94.261, 428.578 95.664 C 425.410 97.175, 425.231 97.140, 422.594 94.503 C 420.075 91.984, 419.474 91.835, 414.383 92.471 C 410.178 92.997, 408.325 92.788, 406.480 91.579 C 404.597 90.345, 401.232 90, 391.094 90 C 383.522 90, 377.861 89.584, 377.500 89 C 376.651 87.626, 361.246 87.916, 351.500 89.489 M 290.750 118.080 C 288.706 119.271, 288.372 121.178, 290.340 120.423 C 291.077 120.140, 292.257 120.604, 292.962 121.454 C 294.028 122.739, 297.149 123, 311.422 123 C 323.053 123, 328.972 122.628, 329.752 121.848 C 330.622 120.978, 331.211 121.408, 332.155 123.598 C 332.842 125.194, 333.508 126.657, 333.634 126.849 C 333.923 127.287, 344.832 120.082, 345.489 119.018 C 346.465 117.439, 330.961 116.861, 319.761 118.057 C 311.132 118.979, 306.811 118.998, 301.861 118.136 C 294.018 116.770, 293.007 116.765, 290.750 118.080 M 446.500 123.032 C 449.800 125.387, 454.985 129.435, 458.022 132.027 C 461.059 134.620, 464.942 137.048, 466.651 137.423 C 469.385 138.024, 469.831 137.808, 470.380 135.622 C 470.723 134.256, 470.546 131.935, 469.987 130.465 C 469.181 128.347, 468.499 127.909, 466.705 128.359 C 462.881 129.319, 460.262 128.061, 459.643 124.966 C 458.887 121.187, 456.357 119.989, 447.699 119.313 L 440.500 118.751 446.500 123.032 M 262.751 132.027 C 260.140 133.765, 257.730 135.627, 257.397 136.166 C 257.008 136.796, 264.408 137.064, 278.146 136.917 C 296.080 136.725, 300.604 136.979, 306.394 138.502 C 312.376 140.076, 313.061 140.482, 311.567 141.575 C 309.300 143.233, 302.558 144.002, 291.500 143.865 C 285.932 143.796, 280.083 144.392, 276.163 145.427 C 271.124 146.757, 269.523 146.849, 268.350 145.875 C 267.174 144.899, 265.915 144.995, 262.156 146.347 C 257.626 147.976, 257.205 147.963, 251.550 146.017 C 246.119 144.149, 245.475 144.114, 243.251 145.571 C 240.553 147.339, 237.720 153.064, 238.929 154.307 C 239.360 154.750, 241.820 154.090, 244.394 152.839 C 248.267 150.958, 249.411 150.775, 251.024 151.783 C 252.398 152.641, 259.332 153, 274.552 153 C 298.225 153, 300.660 153.456, 298.798 157.543 C 297.236 160.973, 293.734 161.596, 287.343 159.582 C 282.067 157.919, 278 158.153, 278 160.120 C 278 161.273, 247.119 160.810, 245.206 159.627 C 244.509 159.196, 242.901 159.720, 241.474 160.842 C 239.324 162.533, 238.529 162.649, 235.896 161.657 C 233.141 160.619, 232.629 160.742, 230.913 162.861 C 229.861 164.159, 229 165.624, 229 166.117 C 229 166.623, 232.627 166.733, 237.357 166.369 C 243.149 165.924, 245.929 166.076, 246.416 166.863 C 246.885 167.623, 251.696 168, 260.937 168 C 272 168, 275.003 167.701, 276 166.500 C 277.573 164.605, 279 164.571, 279 166.428 C 279 167.426, 280.730 168.047, 284.750 168.490 C 287.913 168.839, 291.692 169.347, 293.148 169.619 C 295.577 170.073, 296.153 169.465, 300.077 162.307 C 302.430 158.013, 306.136 152.700, 308.311 150.500 C 310.487 148.300, 314.163 144.025, 316.480 141 C 324.008 131.173, 324.627 128.402, 318.712 131.003 C 314.633 132.796, 306.788 132.635, 301.042 130.639 C 296.871 129.190, 296.299 129.217, 292.165 131.045 C 286.890 133.379, 285.499 133.440, 280.209 131.574 C 277.986 130.789, 274.217 129.860, 271.833 129.508 C 268.059 128.950, 266.887 129.275, 262.751 132.027 M 276.087 175.837 C 274.488 178.825, 270.955 179.137, 263.169 176.980 C 255.120 174.749, 251.432 174.492, 250.443 176.092 C 250.008 176.796, 245.822 177.108, 238.634 176.971 C 232.510 176.854, 225.363 177.096, 222.750 177.509 C 218.347 178.205, 218 178.472, 218 181.161 C 218 184.684, 219.736 185.497, 224.738 184.316 C 227.354 183.699, 228.898 182.600, 229.807 180.709 C 230.903 178.429, 231.427 178.158, 233.057 179.030 C 234.126 179.602, 235 180.680, 235 181.424 C 235 182.169, 235.864 183.841, 236.921 185.139 C 238.803 187.453, 238.901 187.465, 241.825 185.750 C 244.020 184.463, 246.883 184.019, 252.654 184.073 C 262.427 184.164, 271.292 185.377, 271.728 186.683 C 271.925 187.274, 274.159 186.947, 277.279 185.869 C 280.150 184.877, 283.535 184.051, 284.800 184.033 C 290.009 183.959, 295.827 178.747, 292.792 176.872 C 292.091 176.438, 289.038 175.803, 286.009 175.460 C 282.979 175.117, 279.740 174.626, 278.811 174.370 C 277.818 174.096, 276.695 174.701, 276.087 175.837 M 446.500 189.089 C 444.850 189.593, 441.632 189.735, 439.349 189.404 C 437.066 189.073, 434.321 189.081, 433.251 189.420 C 431.129 190.094, 428.627 194.588, 429.546 196.075 C 430.455 197.544, 455.603 197.242, 457.179 195.742 C 458.519 194.466, 475.224 194.917, 484.500 196.479 C 491.762 197.702, 494.776 192.434, 488.276 189.879 C 483.701 188.082, 470.849 187.869, 468.285 189.549 C 465.256 191.533, 454.660 191.500, 453 189.500 C 451.607 187.822, 450.810 187.772, 446.500 189.089 M 237.500 193.597 C 235.512 195.121, 235.514 195.141, 237.776 196.996 C 239.782 198.642, 245.510 199.817, 254 200.327 C 255.375 200.409, 259.875 200.104, 264 199.648 C 268.580 199.142, 274.419 199.225, 278.998 199.862 C 287.218 201.005, 288.590 200.488, 287.617 196.609 C 287.141 194.713, 285.990 193.805, 283.061 193.016 C 279.253 191.991, 261.801 192.387, 259.933 193.541 C 258.274 194.567, 248.824 194.224, 247.697 193.097 C 246.104 191.504, 239.829 191.812, 237.500 193.597 M 210.607 194.582 C 210.273 195.452, 210 197.424, 210 198.965 L 210 201.766 214.109 200.350 C 216.369 199.572, 219.074 199.206, 220.120 199.538 C 221.165 199.870, 224.513 199.830, 227.560 199.449 C 232.385 198.846, 232.867 198.595, 231.299 197.501 C 229.670 196.363, 215.623 193, 212.500 193 C 211.793 193, 210.941 193.712, 210.607 194.582 M 476.500 204.141 C 474.182 204.742, 467.349 204.957, 460.250 204.651 C 453.512 204.360, 448 204.493, 448 204.945 C 448 205.397, 445.069 205.954, 441.488 206.182 C 434.625 206.619, 431.451 208.406, 432.533 211.225 C 433.839 214.630, 469.390 214.752, 470.694 211.356 C 471.159 210.143, 471.547 210.185, 473.136 211.623 C 475.564 213.820, 480.439 213.817, 482.870 211.618 C 484.126 210.481, 485.602 210.113, 487.246 210.526 C 489.264 211.032, 489.841 210.715, 490.334 208.830 C 490.689 207.475, 490.387 205.958, 489.608 205.179 C 487.809 203.380, 481.392 202.872, 476.500 204.141 M 222.527 209.245 C 221.487 209.827, 217.792 210.211, 214.318 210.099 C 210.613 209.979, 208 210.310, 208 210.900 C 208 213.337, 210.520 217.084, 212.421 217.475 C 216.699 218.355, 253.120 218.615, 253.642 217.769 C 253.944 217.281, 260.498 217.164, 268.343 217.506 C 276.725 217.871, 283.061 217.736, 283.875 217.175 C 285.402 216.123, 285.741 211.300, 284.375 210.047 C 282.971 208.758, 224.746 208.003, 222.527 209.245 M 448.750 222.655 C 443.897 223.498, 445.806 225.981, 453.573 228.929 C 458.023 230.618, 458.496 230.621, 462.880 228.993 C 469.038 226.707, 474.279 225.740, 473.476 227.039 C 473.075 227.688, 474.233 227.826, 476.734 227.426 C 480.004 226.904, 481.119 227.229, 483.808 229.492 C 485.564 230.969, 487 232.838, 487 233.645 C 487 234.452, 484.863 236.100, 482.250 237.306 C 478.244 239.156, 474.916 239.610, 461 240.203 C 441.374 241.039, 427.920 242.344, 430 243.210 C 430.825 243.554, 434.650 244.535, 438.500 245.390 C 444.174 246.650, 448.625 246.801, 462 246.184 C 472.325 245.708, 479.906 245.796, 482.256 246.420 C 488.220 248.002, 489.501 245.995, 489.497 235.065 C 489.495 227.643, 489.174 225.849, 487.517 224.018 C 485.675 221.984, 484.984 221.883, 477.519 222.563 C 473.109 222.964, 469.050 223.275, 468.500 223.252 C 467.950 223.230, 463.900 222.979, 459.500 222.694 C 455.100 222.410, 450.262 222.393, 448.750 222.655 M 210.147 227.888 C 208.420 228.982, 210.170 232.643, 212.749 233.333 C 213.712 233.591, 224.586 233.821, 236.914 233.846 C 254.274 233.880, 260.108 233.564, 262.786 232.445 C 264.688 231.650, 267.314 231, 268.622 231 C 270.333 231, 271 230.439, 271 229 C 271 227.044, 270.338 227, 241.250 227.015 C 224.887 227.024, 210.891 227.417, 210.147 227.888 M 213.430 244.300 C 212.644 244.740, 212 245.511, 212 246.015 C 212 247.940, 215.962 248.822, 229.500 249.911 C 243.993 251.076, 259.653 250.269, 265.382 248.060 C 268.178 246.982, 268.211 246.890, 266.477 244.975 C 264.377 242.654, 261.161 242.431, 258.444 244.417 C 256.951 245.509, 256.182 245.566, 255.098 244.667 C 253.467 243.315, 215.786 242.983, 213.430 244.300 M 273.206 243.814 C 271.454 244.071, 271.057 244.604, 271.524 246.075 C 271.866 247.154, 271.666 248, 271.067 248 C 270.480 248, 270 248.400, 270 248.889 C 270 250.305, 276.988 251.255, 278.454 250.038 C 279.361 249.286, 280.574 249.268, 282.443 249.979 C 286.322 251.453, 287.002 251.269, 286.985 248.750 C 286.957 244.728, 285.394 243.501, 280.287 243.489 C 277.654 243.482, 274.468 243.629, 273.206 243.814 M 480 253.620 C 476.817 254.687, 470.204 255.215, 457.404 255.423 C 443.484 255.649, 438.003 256.127, 433.654 257.495 C 430.544 258.474, 428 259.646, 428 260.102 C 428 262.149, 432.455 263.200, 437.893 262.436 C 440.977 262.003, 452.123 261.615, 462.662 261.574 C 473.201 261.533, 482.160 261.166, 482.570 260.759 C 482.980 260.351, 483.931 260.528, 484.682 261.151 C 486.572 262.720, 487.066 261.918, 487.299 256.905 C 487.536 251.802, 486.632 251.395, 480 253.620 M 285.821 256.512 C 285.003 257.330, 274.370 259.135, 270.616 259.092 C 269.030 259.074, 265.543 260.001, 262.867 261.153 C 258.996 262.818, 257.703 262.998, 256.544 262.037 C 255.743 261.372, 254.603 261.127, 254.011 261.493 C 253.419 261.859, 251.393 261.249, 249.508 260.137 C 246.603 258.423, 244.279 258.110, 234.210 258.074 C 221.757 258.030, 219.761 258.610, 218.575 262.619 C 217.975 264.647, 218.374 264.769, 227.837 265.440 C 233.276 265.825, 242.048 265.824, 247.331 265.436 C 254.224 264.930, 257.799 265.088, 259.993 265.997 C 262.658 267.101, 263.310 267.030, 265.066 265.440 C 266.928 263.755, 267.554 263.722, 273.291 264.999 C 276.706 265.760, 281.300 266.466, 283.500 266.569 C 285.700 266.671, 288.288 267.084, 289.250 267.485 C 291.501 268.423, 291.573 266.263, 289.395 263.154 C 288.512 261.894, 287.490 259.741, 287.124 258.369 C 286.757 256.998, 286.171 256.162, 285.821 256.512 M 480.482 270.008 C 476.623 270.331, 472.894 270.948, 472.196 271.379 C 470.426 272.473, 436.495 272.139, 433.494 270.998 C 431.511 270.244, 430.840 270.431, 430.018 271.966 C 428.393 275.002, 428.817 276.834, 431.557 278.630 C 433.802 280.100, 435.423 280.186, 444.807 279.330 C 450.688 278.794, 456.534 278.722, 457.798 279.171 C 459.088 279.629, 462.145 279.528, 464.767 278.940 C 468.125 278.188, 471.415 278.222, 476.469 279.064 C 485.329 280.539, 487.572 281.606, 485.942 283.570 C 485.147 284.528, 482.715 285, 478.578 285 C 474.968 285, 471.881 285.520, 471.151 286.250 C 470.255 287.147, 464.006 287.595, 449.012 287.837 L 428.121 288.173 427.459 291.185 C 427.090 292.866, 427.255 294.655, 427.832 295.232 C 429.210 296.610, 454.800 295.728, 457.630 294.205 C 459.262 293.326, 461.950 293.408, 469.130 294.555 C 480.660 296.396, 485 297.748, 485 299.500 C 485 301.970, 477.991 303.444, 468 303.074 C 457.531 302.687, 456.573 302.704, 440 303.577 C 433.675 303.910, 427.915 304.666, 427.199 305.256 C 424.977 307.090, 426.204 311.344, 429.395 312.866 C 431.822 314.025, 433.355 314.037, 438.895 312.941 C 448.149 311.111, 472.034 310.574, 480.281 312.011 C 488.888 313.511, 490 312.762, 490 305.461 C 490 302.135, 489.539 300.013, 488.759 299.753 C 487.874 299.458, 488.034 298.824, 489.315 297.542 C 490.745 296.112, 491.004 294.698, 490.585 290.623 C 490.295 287.805, 489.782 282.016, 489.444 277.757 C 489.107 273.498, 488.531 269.880, 488.165 269.717 C 487.799 269.554, 484.342 269.685, 480.482 270.008 M 222 275.050 C 222 275.627, 222.635 277.327, 223.411 278.828 L 224.822 281.556 259.411 281.753 C 293.627 281.947, 294 281.928, 294 279.909 C 294 275.425, 292.238 273.999, 286.715 274.014 C 283.847 274.021, 280.477 274.301, 279.227 274.636 C 277.164 275.189, 277.109 275.359, 278.629 276.471 C 279.551 277.145, 280.006 278.182, 279.639 278.775 C 278.860 280.036, 275.308 279.179, 269.472 276.323 C 265.821 274.537, 264.086 274.433, 248 275.040 C 238.375 275.403, 230.072 275.317, 229.550 274.850 C 228.191 273.634, 222 273.797, 222 275.050 M 275.500 289.223 C 273.218 290.662, 271.341 290.990, 267.659 290.594 C 264.229 290.225, 262.121 290.530, 260.426 291.640 C 258.500 292.902, 257.418 292.993, 254.868 292.104 C 250.967 290.744, 249.700 290.705, 250.482 291.971 C 251.453 293.542, 246.543 294.244, 242.461 293.117 C 236.891 291.579, 234.901 293.201, 239.701 295.365 C 244.017 297.311, 255.326 297.471, 263.225 295.696 C 266.660 294.925, 268.570 294.945, 270.225 295.770 C 274.882 298.094, 280.799 298.989, 291.550 298.994 C 305.557 299.001, 306.795 298.003, 301.769 290.750 C 299.588 287.602, 296.438 287.205, 291.971 289.515 C 288.696 291.209, 281.212 290.628, 279.500 288.547 C 278.730 287.611, 277.811 287.766, 275.500 289.223 M 268.583 305.750 C 268.170 306.163, 264.075 306.507, 259.483 306.516 C 254.891 306.525, 250.779 306.887, 250.346 307.321 C 249.351 308.316, 251.881 309.964, 254.436 309.985 C 255.500 309.993, 257.449 311.012, 258.767 312.250 C 260.952 314.302, 261.948 314.469, 270.081 314.150 C 277.737 313.849, 279 314.026, 279 315.400 C 279 317.618, 280.311 317.407, 284.595 314.500 C 288.811 311.639, 288.640 311.655, 300.050 313.054 C 312.745 314.611, 317.139 312.298, 311.518 307.017 C 309.075 304.722, 308.887 304.704, 299.268 305.849 C 292.358 306.671, 287.014 306.720, 281 306.013 C 270.753 304.810, 269.549 304.784, 268.583 305.750 M 482.500 319.124 C 480.850 319.647, 471.037 320.048, 460.693 320.015 C 437.022 319.938, 431.894 321.122, 434.952 325.957 C 435.883 327.428, 448 329.231, 448 327.898 C 448 327.527, 455.762 327.448, 465.250 327.722 C 477.653 328.081, 483.132 328.619, 484.750 329.634 C 490.831 333.451, 483.893 338.813, 474.515 337.545 C 471.757 337.172, 467.612 336.616, 465.305 336.309 C 462.083 335.881, 460.479 336.213, 458.382 337.740 C 455.660 339.723, 455.645 339.723, 452.289 337.743 C 449.722 336.228, 447.692 335.863, 443.713 336.201 C 437.716 336.710, 431 339.578, 431 341.629 C 431 343.688, 437.128 347.162, 439.500 346.447 C 440.600 346.116, 443.169 345.493, 445.209 345.064 C 447.249 344.635, 450.083 343.521, 451.505 342.588 C 453.954 340.984, 454.667 341.007, 464.796 343.012 C 472.333 344.504, 475.998 345.712, 477.184 347.095 C 478.780 348.956, 478.920 348.966, 479.878 347.279 C 480.710 345.815, 481.231 345.709, 482.817 346.679 C 484.467 347.687, 485.198 347.391, 487.873 344.631 C 490.972 341.433, 491 341.312, 491 330.902 C 491 317.816, 490.184 316.686, 482.500 319.124 M 317 321.024 C 306.563 325.238, 298.963 325.552, 283.250 322.421 C 280.671 321.907, 280 322.102, 280 323.367 C 280 324.277, 281.181 325.250, 282.750 325.633 C 284.262 326.003, 286.533 327.105, 287.796 328.083 C 290.002 329.790, 290.259 329.785, 294.296 327.952 C 298.944 325.842, 302.554 325.469, 303.500 327 C 304.255 328.222, 326.656 328.222, 329.500 327 C 331.442 326.165, 331.438 326.139, 329.349 326.070 C 327.993 326.026, 326.434 324.706, 325.133 322.500 C 322.793 318.534, 323.051 318.581, 317 321.024 M 338 332.181 C 338 334.390, 337.377 334.920, 333.684 335.849 C 331.310 336.447, 328.540 337.851, 327.529 338.968 C 325.699 340.990, 325.720 341, 332.074 341 C 336.524 341, 340.502 341.781, 345.208 343.580 L 351.959 346.159 357.517 344.080 C 364.098 341.617, 368.749 341.450, 373.654 343.500 C 378.276 345.431, 378.663 345.397, 379.290 343 C 379.577 341.900, 380.572 341, 381.500 341 C 382.428 341, 383.423 341.900, 383.710 343 C 384.338 345.399, 385.313 345.533, 387.035 343.458 C 389.004 341.085, 387.194 340.196, 379.500 339.753 C 371.499 339.293, 353.641 334.878, 347.866 331.932 C 345.017 330.478, 343.480 330.208, 342.139 330.926 C 340.885 331.597, 339.942 331.542, 339.153 330.753 C 338.282 329.882, 338 330.232, 338 332.181 M 398.222 338.919 C 393.078 339.485, 392.982 339.554, 394.438 341.620 C 395.259 342.785, 397.574 344.519, 399.582 345.472 C 403.124 347.153, 403.317 347.142, 406.076 345.102 C 408.439 343.355, 410.350 343, 417.400 343 C 425.214 343, 428.362 342.027, 426.516 340.183 C 426.140 339.808, 421.482 339.463, 416.166 339.418 C 410.850 339.373, 405.825 339.112, 405 338.837 C 404.175 338.563, 401.125 338.600, 398.222 338.919" stroke="none" fill="#302b1f" fill-rule="evenodd" stroke-width="0.5"/>
</svg>